# xmcd
#
# Track frame offsets: 
#        150
#        11850
#        25184
#        40782
#        56115
#        71984
#        87794
#        102478
#        113732
#        129989
#        150715
#        165908
#
# Disc length: 2479 seconds
#
# Revision: 0
# Processed by: cddbd v1.5.2PL0 Copyright (c) Steve Scherf et al.
# Submitted via: ExactAudioCopy v0.99pb3
#
DISCID=9709ad0c
DTITLE=Πασχάλης - Χρυσή Δισκοθήκη - Πασχάλης
DYEAR=2007
DGENRE=Pop
TTITLE0=Σχολείο
TTITLE1=Ο Τρόπος
TTITLE2=Ανάμνηση
TTITLE3=Ο Αλέξης
TTITLE4=Το Κορίτσι Του Μάη
TTITLE5=Κάποτε Θα 'ρθει Μια Μέρα (Jesus Christo)
TTITLE6=Το Τραγούδι Μου (Prison Song)
TTITLE7=’ν Μια Μέρα Σε Χάσω (Si Me Dejas No Vale)
TTITLE8=Φύγε Σε Παρακαλώ (Seniorita Por Favor)
TTITLE9=Στο Μπαράκι (I Need To Forget)
TTITLE10=Πες, Πές, Πές Μου
TTITLE11=Τζοάννα (Gimme Hope Johanna)
EXTD=
EXTT0=
EXTT1=
EXTT2=
EXTT3=
EXTT4=
EXTT5=
EXTT6=
EXTT7=
EXTT8=
EXTT9=
EXTT10=
EXTT11=
PLAYORDER=
